<svg xmlns="http://www.w3.org/2000/svg" viewBox="0 0 684.159 715.891"><defs><style>.a{fill:none;stroke-linecap:round;stroke-linejoin:round;opacity:0.8;}.b,.c{stroke:none;}.c{fill:#67deb9;}</style></defs><g transform="translate(-2877.877 15938.515) rotate(90)"><g transform="translate(-15938.515 -3562.035)"><g class="a" transform="translate(0 684.159) rotate(-90)"><path class="b" d="M2.133,144.653c-4.8,411.356,0,420.4,0,420.4S270.9,715.891,290.1,715.891,684.159,354.884,684.159,354.884L290.1,0Z"/><path class="c" d="M 287.6736145019531 18.00360107421875 L 17.0262451171875 153.9573974609375 C 13.54400634765625 457.0885009765625 15.39044189453125 535.80029296875 16.3896484375 555.8466186523438 C 132.794921875 621.0638427734375 261.9233093261719 690.5693969726563 288.5015258789063 700.061279296875 C 322.8663330078125 677.5794067382813 528.57373046875 483.6524963378906 662.1470336914063 355.2474670410156 L 287.6736145019531 18.00360107421875 M 290.0972595214844 6.103515625e-05 L 684.15869140625 354.8844909667969 C 684.15869140625 354.8844909667969 309.2945861816406 715.8906860351563 290.0972595214844 715.8906860351563 C 270.89990234375 715.8906860351563 2.1329345703125 565.0494995117188 2.1329345703125 565.0494995117188 C 2.1329345703125 565.0494995117188 -2.66619873046875 556.0086059570313 2.1329345703125 144.652587890625 L 290.0972595214844 6.103515625e-05 Z"/></g><g class="a" transform="translate(715.891 0) rotate(90)"><path class="b" d="M2.133,144.653c-4.8,411.356,0,420.4,0,420.4S270.9,715.891,290.1,715.891,684.159,354.884,684.159,354.884L290.1,0Z"/><path class="c" d="M 287.6736145019531 18.00360107421875 L 17.0262451171875 153.9573974609375 C 13.54400634765625 457.0885009765625 15.39044189453125 535.80029296875 16.3896484375 555.8466186523438 C 132.794921875 621.0638427734375 261.9233093261719 690.5693969726563 288.5015258789063 700.061279296875 C 322.8663330078125 677.5794067382813 528.57373046875 483.6524963378906 662.1470336914063 355.2474670410156 L 287.6736145019531 18.00360107421875 M 290.0972595214844 6.103515625e-05 L 684.15869140625 354.8844909667969 C 684.15869140625 354.8844909667969 309.2945861816406 715.8906860351563 290.0972595214844 715.8906860351563 C 270.89990234375 715.8906860351563 2.1329345703125 565.0494995117188 2.1329345703125 565.0494995117188 C 2.1329345703125 565.0494995117188 -2.66619873046875 556.0086059570313 2.1329345703125 144.652587890625 L 290.0972595214844 6.103515625e-05 Z"/></g></g></g></svg>